<svg width="148" height="116" viewBox="0 0 148 116" fill="none" xmlns="http://www.w3.org/2000/svg">
<path d="M17.512 110.288C16.184 110.288 14.896 110.112 13.648 109.76C12.416 109.392 11.424 108.92 10.672 108.344L11.992 105.416C12.712 105.944 13.568 106.368 14.56 106.688C15.552 107.008 16.544 107.168 17.536 107.168C18.64 107.168 19.456 107.008 19.984 106.688C20.512 106.352 20.776 105.912 20.776 105.368C20.776 104.968 20.616 104.64 20.296 104.384C19.992 104.112 19.592 103.896 19.096 103.736C18.616 103.576 17.96 103.4 17.128 103.208C15.848 102.904 14.8 102.6 13.984 102.296C13.168 101.992 12.464 101.504 11.872 100.832C11.296 100.16 11.008 99.264 11.008 98.144C11.008 97.168 11.272 96.288 11.8 95.504C12.328 94.704 13.12 94.072 14.176 93.608C15.248 93.144 16.552 92.912 18.088 92.912C19.16 92.912 20.208 93.04 21.232 93.296C22.256 93.552 23.152 93.92 23.92 94.4L22.72 97.352C21.168 96.472 19.616 96.032 18.064 96.032C16.976 96.032 16.168 96.208 15.64 96.56C15.128 96.912 14.872 97.376 14.872 97.952C14.872 98.528 15.168 98.96 15.76 99.248C16.368 99.52 17.288 99.792 18.52 100.064C19.8 100.368 20.848 100.672 21.664 100.976C22.48 101.28 23.176 101.76 23.752 102.416C24.344 103.072 24.64 103.96 24.64 105.08C24.64 106.04 24.368 106.92 23.824 107.72C23.296 108.504 22.496 109.128 21.424 109.592C20.352 110.056 19.048 110.288 17.512 110.288ZM27.0327 97.088H30.7767V110H27.0327V97.088ZM28.9047 95.288C28.2167 95.288 27.6567 95.088 27.2247 94.688C26.7927 94.288 26.5767 93.792 26.5767 93.2C26.5767 92.608 26.7927 92.112 27.2247 91.712C27.6567 91.312 28.2167 91.112 28.9047 91.112C29.5927 91.112 30.1527 91.304 30.5847 91.688C31.0167 92.072 31.2327 92.552 31.2327 93.128C31.2327 93.752 31.0167 94.272 30.5847 94.688C30.1527 95.088 29.5927 95.288 28.9047 95.288ZM47.5714 97.088V107.84C47.5714 110.208 46.9554 111.968 45.7234 113.12C44.4914 114.272 42.6914 114.848 40.3234 114.848C39.0754 114.848 37.8914 114.696 36.7714 114.392C35.6514 114.088 34.7234 113.648 33.9874 113.072L35.4754 110.384C36.0194 110.832 36.7074 111.184 37.5394 111.44C38.3714 111.712 39.2034 111.848 40.0354 111.848C41.3314 111.848 42.2834 111.552 42.8914 110.96C43.5154 110.384 43.8274 109.504 43.8274 108.32V107.768C42.8514 108.84 41.4914 109.376 39.7474 109.376C38.5634 109.376 37.4754 109.12 36.4834 108.608C35.5074 108.08 34.7314 107.344 34.1554 106.4C33.5794 105.456 33.2914 104.368 33.2914 103.136C33.2914 101.904 33.5794 100.816 34.1554 99.872C34.7314 98.928 35.5074 98.2 36.4834 97.688C37.4754 97.16 38.5634 96.896 39.7474 96.896C41.6194 96.896 43.0434 97.512 44.0194 98.744V97.088H47.5714ZM40.4914 106.304C41.4834 106.304 42.2914 106.016 42.9154 105.44C43.5554 104.848 43.8754 104.08 43.8754 103.136C43.8754 102.192 43.5554 101.432 42.9154 100.856C42.2914 100.264 41.4834 99.968 40.4914 99.968C39.4994 99.968 38.6834 100.264 38.0434 100.856C37.4034 101.432 37.0834 102.192 37.0834 103.136C37.0834 104.08 37.4034 104.848 38.0434 105.44C38.6834 106.016 39.4994 106.304 40.4914 106.304ZM51.0561 97.088H54.8001V110H51.0561V97.088ZM52.9281 95.288C52.2401 95.288 51.6801 95.088 51.2481 94.688C50.8161 94.288 50.6001 93.792 50.6001 93.2C50.6001 92.608 50.8161 92.112 51.2481 91.712C51.6801 91.312 52.2401 91.112 52.9281 91.112C53.6161 91.112 54.1761 91.304 54.6081 91.688C55.0401 92.072 55.2561 92.552 55.2561 93.128C55.2561 93.752 55.0401 94.272 54.6081 94.688C54.1761 95.088 53.6161 95.288 52.9281 95.288ZM66.6029 109.376C66.2349 109.648 65.7789 109.856 65.2349 110C64.7069 110.128 64.1469 110.192 63.5549 110.192C62.0189 110.192 60.8269 109.8 59.9789 109.016C59.1469 108.232 58.7309 107.08 58.7309 105.56V100.256H56.7389V97.376H58.7309V94.232H62.4749V97.376H65.6909V100.256H62.4749V105.512C62.4749 106.056 62.6109 106.48 62.8829 106.784C63.1709 107.072 63.5709 107.216 64.0829 107.216C64.6749 107.216 65.1789 107.056 65.5949 106.736L66.6029 109.376ZM83.2898 110.144C81.6258 110.144 80.1218 109.776 78.7778 109.04C77.4498 108.304 76.4018 107.288 75.6338 105.992C74.8818 104.68 74.5058 103.216 74.5058 101.6C74.5058 99.984 74.8818 98.528 75.6338 97.232C76.4018 95.92 77.4578 94.896 78.8018 94.16C80.1458 93.424 81.6498 93.056 83.3138 93.056C84.5618 93.056 85.7138 93.264 86.7698 93.68C87.8258 94.096 88.7218 94.704 89.4578 95.504L88.3298 96.632C87.0178 95.304 85.3618 94.64 83.3618 94.64C82.0338 94.64 80.8258 94.944 79.7378 95.552C78.6498 96.16 77.7938 96.992 77.1698 98.048C76.5618 99.104 76.2578 100.288 76.2578 101.6C76.2578 102.912 76.5618 104.096 77.1698 105.152C77.7938 106.208 78.6498 107.04 79.7378 107.648C80.8258 108.256 82.0338 108.56 83.3618 108.56C85.3778 108.56 87.0338 107.888 88.3298 106.544L89.4578 107.672C88.7218 108.472 87.8178 109.088 86.7458 109.52C85.6898 109.936 84.5378 110.144 83.2898 110.144ZM92.8838 92.192H94.5878V110H92.8838V92.192ZM104.489 110.12C103.273 110.12 102.177 109.848 101.201 109.304C100.225 108.744 99.4571 107.976 98.8971 107C98.3371 106.024 98.0571 104.92 98.0571 103.688C98.0571 102.456 98.3371 101.352 98.8971 100.376C99.4571 99.4 100.225 98.64 101.201 98.096C102.177 97.552 103.273 97.28 104.489 97.28C105.705 97.28 106.801 97.552 107.777 98.096C108.753 98.64 109.513 99.4 110.057 100.376C110.617 101.352 110.897 102.456 110.897 103.688C110.897 104.92 110.617 106.024 110.057 107C109.513 107.976 108.753 108.744 107.777 109.304C106.801 109.848 105.705 110.12 104.489 110.12ZM104.489 108.608C105.385 108.608 106.185 108.408 106.889 108.008C107.609 107.592 108.169 107.008 108.569 106.256C108.969 105.504 109.169 104.648 109.169 103.688C109.169 102.728 108.969 101.872 108.569 101.12C108.169 100.368 107.609 99.792 106.889 99.392C106.185 98.976 105.385 98.768 104.489 98.768C103.593 98.768 102.785 98.976 102.065 99.392C101.361 99.792 100.801 100.368 100.385 101.12C99.9851 101.872 99.7851 102.728 99.7851 103.688C99.7851 104.648 99.9851 105.504 100.385 106.256C100.801 107.008 101.361 107.592 102.065 108.008C102.785 108.408 103.593 108.608 104.489 108.608ZM121.024 109.232C120.704 109.52 120.304 109.744 119.824 109.904C119.36 110.048 118.872 110.12 118.36 110.12C117.176 110.12 116.264 109.8 115.624 109.16C114.984 108.52 114.664 107.616 114.664 106.448V98.816H112.408V97.376H114.664V94.616H116.368V97.376H120.208V98.816H116.368V106.352C116.368 107.104 116.552 107.68 116.92 108.08C117.304 108.464 117.848 108.656 118.552 108.656C118.904 108.656 119.24 108.6 119.56 108.488C119.896 108.376 120.184 108.216 120.424 108.008L121.024 109.232ZM130.558 97.28C132.142 97.28 133.398 97.744 134.326 98.672C135.27 99.584 135.742 100.92 135.742 102.68V110H134.038V102.848C134.038 101.536 133.71 100.536 133.054 99.848C132.398 99.16 131.462 98.816 130.246 98.816C128.886 98.816 127.806 99.224 127.006 100.04C126.222 100.84 125.83 101.952 125.83 103.376V110H124.126V92.192H125.83V99.584C126.294 98.848 126.934 98.28 127.75 97.88C128.566 97.48 129.502 97.28 130.558 97.28Z" fill="#0C2461"/>
<path d="M29.8211 37.2649C29.9125 31.0256 31.0002 25.0408 33.0844 19.3108C35.1674 13.6607 37.8715 9.29979 41.1969 6.22817L47.9852 9.80797C44.901 12.8031 42.3621 16.8064 40.3684 21.8177C38.4548 26.8302 37.4588 32.0162 37.3803 37.3756C37.2701 44.8948 38.5474 50.5541 41.212 54.3535C43.9566 58.1542 47.5287 60.0867 51.9283 60.1511C55.2879 60.2003 57.9828 59.1997 60.0131 57.1492C62.0422 55.1787 63.5983 52.7212 64.6816 49.7768C65.8448 46.8335 67.105 42.7315 68.4622 37.4708C70.1546 31.175 71.7483 26.1578 73.2432 22.4193C74.8181 18.6819 77.1453 15.4757 80.2248 12.8005C83.3031 10.2053 87.442 8.94577 92.6415 9.02192C96.881 9.08402 100.704 10.2601 104.111 12.5503C107.598 14.8416 110.347 18.3222 112.359 22.9922C114.371 27.6622 115.326 33.4368 115.226 40.3161C115.155 45.1155 114.407 49.7851 112.98 54.3247C111.632 58.9454 109.774 62.9186 107.405 66.2443L100.37 63.1409C102.741 59.6553 104.516 55.9209 105.694 51.9377C106.953 47.9557 107.61 44.0449 107.666 40.2053C107.774 32.8461 106.416 27.2656 103.591 23.4638C100.845 19.7432 97.2327 17.8501 92.7531 17.7845C89.3935 17.7353 86.6591 18.6953 84.5501 20.6647C82.5198 22.7152 80.9225 25.252 79.7581 28.2753C78.6725 31.3797 77.4517 35.5223 76.0957 40.703C74.4856 46.8401 72.8932 51.7773 71.3182 55.5146C69.8222 59.3331 67.5349 62.54 64.4566 65.1351C61.4583 67.7315 57.3994 68.9922 52.2799 68.9172C48.0404 68.8551 44.1778 67.6384 40.6921 65.2671C37.2853 62.977 34.5766 59.4569 32.5659 54.707C30.6353 49.9582 29.7203 44.1441 29.8211 37.2649Z" fill="#0C2461"/>
</svg>
