<svg width="286" height="188" viewBox="0 0 286 188" fill="none" xmlns="http://www.w3.org/2000/svg">
<path d="M7.83984 180.615C6 180.615 4.51758 180.217 3.39258 179.42C2.26758 178.611 1.70508 177.053 1.70508 174.744C1.70508 173.9 1.74609 172.699 1.82812 171.141C2.10938 166.113 2.49609 162.129 2.98828 159.188C3.24609 157.605 3.70312 156.346 4.35938 155.408C4.91016 154.635 5.625 154.055 6.50391 153.668C7.91016 153.059 9.80859 152.754 12.1992 152.754C19.8633 152.754 23.6953 156.229 23.6953 163.178C23.6953 166.189 22.793 169.131 20.9883 172.002C17.3789 177.744 12.9961 180.615 7.83984 180.615ZM8.52539 176.15C9.65039 176.15 10.8281 175.629 12.0586 174.586C13.3008 173.531 14.3789 172.096 15.293 170.279C16.125 168.592 16.6758 166.682 16.9453 164.549C17.0273 163.846 17.0684 163.207 17.0684 162.633C17.0684 161.965 16.998 161.227 16.8574 160.418C16.7168 159.609 16.3945 158.83 15.8906 158.08C14.8008 156.51 12.9609 155.725 10.3711 155.725C10.4414 157.248 10.4766 158.754 10.4766 160.242C10.4766 165.07 10.125 169.324 9.42188 173.004C9.09375 174.727 8.79492 175.775 8.52539 176.15ZM29.5312 180.844C27.9258 180.844 26.7891 179.93 26.1211 178.102C25.6055 176.719 25.3477 174.902 25.3477 172.652C25.3477 171.434 25.4355 170.127 25.6113 168.732C26.0801 164.982 26.7656 162.48 27.668 161.227C28.125 160.605 28.9629 160.295 30.1816 160.295C31.3301 160.295 32.0859 160.594 32.4492 161.191C33 162.117 33.2754 163.834 33.2754 166.342C33.2754 169.635 32.7246 173.021 31.623 176.502C32.7012 175.576 33.8555 174.135 35.0859 172.178C36.3281 170.209 37.2246 168.562 37.7754 167.238C38.0215 166.629 38.2266 166.184 38.3906 165.902C38.5664 165.621 38.7129 165.445 38.8301 165.375C38.959 165.293 39.082 165.252 39.1992 165.252C39.4336 165.252 39.5508 165.422 39.5508 165.762C39.5508 166.16 39.4277 166.74 39.1816 167.502C37.6699 172.213 35.9414 175.77 33.9961 178.172C32.5547 179.953 31.0664 180.844 29.5312 180.844ZM30.3398 158.941C29.8945 158.941 29.4492 158.848 29.0039 158.66C28.043 158.273 27.5625 157.576 27.5625 156.568C27.5625 155.537 27.9492 154.729 28.7227 154.143C29.3906 153.65 30.1172 153.404 30.9023 153.404C31.3242 153.404 31.7637 153.492 32.2207 153.668C33.1934 154.055 33.6797 154.799 33.6797 155.9C33.6797 156.615 33.4805 157.225 33.082 157.729C32.4492 158.537 31.5352 158.941 30.3398 158.941ZM40.4473 177.715C41.1504 177.715 41.6777 177.568 42.0293 177.275C42.3809 176.982 42.5566 176.613 42.5566 176.168C42.5566 175.758 42.375 175.359 42.0117 174.973C40.1602 175.535 39.2344 176.139 39.2344 176.783C39.2344 177.076 39.3457 177.305 39.5684 177.469C39.8027 177.633 40.0957 177.715 40.4473 177.715ZM42.2227 181.107C40.793 181.107 39.6445 180.92 38.7773 180.545C37.9219 180.17 37.3125 179.695 36.9492 179.121C36.6328 178.641 36.4746 178.137 36.4746 177.609C36.4746 175.934 37.793 174.598 40.4297 173.602C39.8789 173.156 39.334 172.623 38.7949 172.002C37.6582 170.701 37.0898 169.061 37.0898 167.08C37.0898 164.865 37.834 163.02 39.3223 161.543C40.8223 160.066 42.8145 159.328 45.2988 159.328C46.084 159.328 46.752 159.422 47.3027 159.609C48.2285 159.938 48.9199 160.436 49.377 161.104C49.9043 161.877 50.168 162.768 50.168 163.775C50.168 164.549 50.0215 165.217 49.7285 165.779C49.5059 166.201 49.2363 166.412 48.9199 166.412C48.4863 166.412 48.1816 166.125 48.0059 165.551C47.7246 164.625 47.3848 163.951 46.9863 163.529C46.6816 163.213 46.2773 163.055 45.7734 163.055C45.2227 163.066 44.7539 163.283 44.3672 163.705C43.793 164.326 43.5059 165.117 43.5059 166.078C43.5059 166.992 43.7754 167.748 44.3145 168.346C44.8535 168.943 45.5273 169.5 46.3359 170.016C46.875 170.355 47.3906 170.736 47.8828 171.158C50.3438 169.893 52.043 168.58 52.9805 167.221C53.4375 166.553 53.748 166.078 53.9121 165.797C54.0293 165.586 54.1172 165.445 54.1758 165.375C54.2344 165.293 54.3164 165.252 54.4219 165.252C54.5977 165.252 54.6855 165.363 54.6855 165.586C54.6855 168.223 52.793 170.502 49.0078 172.424C49.4531 173.08 49.6758 173.936 49.6758 174.99C49.6758 176.268 49.3066 177.398 48.5684 178.383C47.9355 179.227 47.0742 179.889 45.9844 180.369C44.9062 180.861 43.6523 181.107 42.2227 181.107ZM57.2695 180.844C54.2578 180.844 52.752 177.75 52.752 171.562C52.752 169.23 52.9922 166.078 53.4727 162.105L52.8047 162.07C51.7266 162 51.1875 161.602 51.1875 160.875C51.1875 160.055 52.0781 159.551 53.8594 159.363C54.3398 157.16 54.8906 155.742 55.5117 155.109C56.1445 154.477 57.0234 154.16 58.1484 154.16C59.2617 154.16 60.0645 154.588 60.5566 155.443C61.0488 156.299 61.2949 157.617 61.2949 159.398C63.498 159.609 64.5996 160.102 64.5996 160.875C64.5996 161.602 63.9434 161.994 62.6309 162.053L61.2598 162.105C61.0371 168.234 60.4043 173.033 59.3613 176.502C61.0254 175.576 62.4727 174.135 63.7031 172.178C64.9453 170.209 65.8418 168.562 66.3926 167.238C66.6387 166.629 66.8438 166.184 67.0078 165.902C67.1836 165.621 67.3301 165.445 67.4473 165.375C67.5762 165.293 67.6992 165.252 67.8164 165.252C68.0508 165.252 68.168 165.422 68.168 165.762C68.168 166.16 68.0449 166.74 67.7988 167.502C66.4043 171.861 64.5996 175.248 62.3848 177.662C60.4395 179.783 58.7344 180.844 57.2695 180.844ZM68.6953 180.51C67.4531 180.51 66.6445 180.07 66.2695 179.191C65.8945 178.312 65.707 176.695 65.707 174.34C65.707 173.016 65.7773 171.387 65.918 169.453C66.2695 164.73 66.9844 161.695 68.0625 160.348C68.625 159.645 69.5098 159.293 70.7168 159.293C71.6543 159.293 72.375 159.539 72.8789 160.031C73.3008 160.43 73.5703 160.963 73.6875 161.631C73.7812 162.193 73.8281 162.908 73.8281 163.775C74.5547 162.451 75.3809 161.408 76.3066 160.646C77.2441 159.885 78.2051 159.504 79.1895 159.504C80.0566 159.504 80.7188 159.727 81.1758 160.172C81.9258 160.922 82.3008 162.076 82.3008 163.635C82.3008 164.502 82.1895 165.457 81.9668 166.5C81.6387 168.082 81.334 169.055 81.0527 169.418C81.5098 169.418 82.0312 169.242 82.6172 168.891C83.2148 168.539 83.7246 168.117 84.1465 167.625C84.5801 167.133 84.9199 166.646 85.166 166.166C85.3066 165.896 85.4297 165.697 85.5352 165.568C85.6523 165.428 85.752 165.34 85.834 165.305C85.9277 165.27 86.0215 165.252 86.1152 165.252C86.3262 165.252 86.4316 165.393 86.4316 165.674C86.4316 166.635 86.0625 167.631 85.3242 168.662C84.668 169.576 83.8184 170.355 82.7754 171C81.7324 171.645 80.7246 171.967 79.752 171.967C79.084 171.967 78.5449 171.773 78.1348 171.387C77.3379 170.66 76.9395 169.395 76.9395 167.59C76.9395 166.113 77.2031 164.725 77.7305 163.424C77.2148 163.424 76.7285 163.729 76.2715 164.338C75.4395 165.439 74.666 167.232 73.9512 169.717C73.4238 171.557 73.0312 173.326 72.7734 175.025C72.457 177.182 72.0352 178.6 71.5078 179.279C70.8633 180.1 69.9258 180.51 68.6953 180.51ZM93.3047 176.906C94.0195 176.906 94.6465 176.695 95.1855 176.273C95.7363 175.84 96.1992 175.271 96.5742 174.568C96.9609 173.854 97.2656 173.057 97.4883 172.178C96.1406 171.568 95.0098 170.689 94.0957 169.541C93.1816 168.381 92.584 167.121 92.3027 165.762C91.4238 167.988 90.9844 170.221 90.9844 172.459C90.9844 172.963 91.0254 173.555 91.1074 174.234C91.2012 174.914 91.4238 175.529 91.7754 176.08C92.1387 176.631 92.6484 176.906 93.3047 176.906ZM97.8926 169.682C97.9395 169.119 97.9629 168.574 97.9629 168.047C97.9629 165.633 97.5527 163.893 96.7324 162.826C96.416 162.428 96.1289 162.229 95.8711 162.229C95.3438 162.229 95.0801 162.885 95.0801 164.197C95.0801 165.334 95.3438 166.395 95.8711 167.379C96.4102 168.352 97.084 169.119 97.8926 169.682ZM91.9863 180.58C89.1738 180.58 87.1113 179.66 85.7988 177.82C84.709 176.309 84.1641 174.24 84.1641 171.615C84.1641 167.947 85.0137 164.924 86.7129 162.545C88.2012 160.436 90.1348 159.381 92.5137 159.381C93.2168 159.381 93.6855 159.533 93.9199 159.838C94.5762 159.533 95.2148 159.381 95.8359 159.381C97.8281 159.381 99.3574 160.43 100.424 162.527C101.232 164.133 101.637 166.002 101.637 168.135C101.637 168.826 101.578 169.688 101.461 170.719C103.324 170.578 104.689 169.418 105.557 167.238C105.803 166.629 106.008 166.184 106.172 165.902C106.43 165.469 106.705 165.252 106.998 165.252C107.221 165.252 107.332 165.41 107.332 165.727C107.332 166.184 107.209 166.775 106.963 167.502C106.377 169.283 105.557 170.596 104.502 171.439C103.459 172.283 102.293 172.74 101.004 172.811C100.605 174.229 100.008 175.523 99.2109 176.695C97.4414 179.285 95.0332 180.58 91.9863 180.58ZM122.977 180.615C121.254 180.615 119.795 180.357 118.6 179.842C114.92 178.248 113.08 174.504 113.08 168.609C113.08 166.523 113.32 164.555 113.801 162.703C114.539 159.867 115.811 157.576 117.615 155.83C119.643 153.861 122.238 152.877 125.402 152.877C126.621 152.877 127.676 153.047 128.566 153.387C130.207 154.02 131.414 155.092 132.188 156.604C132.75 157.693 133.031 158.83 133.031 160.014C133.031 161.033 132.844 161.9 132.469 162.615C132.176 163.154 131.83 163.424 131.432 163.424C130.834 163.424 130.453 163.061 130.289 162.334C129.867 160.541 129.322 159.234 128.654 158.414C127.998 157.582 127.178 157.166 126.193 157.166C125.35 157.166 124.588 157.588 123.908 158.432C123.229 159.264 122.654 160.424 122.186 161.912C121.729 163.4 121.412 165.141 121.236 167.133C121.201 167.602 121.184 168.135 121.184 168.732C121.184 169.846 121.23 170.76 121.324 171.475C121.734 174.709 122.795 176.326 124.506 176.326C125.502 176.326 126.398 175.916 127.195 175.096C128.004 174.264 128.771 172.957 129.498 171.176C129.803 170.438 130.254 170.068 130.852 170.068C131.25 170.068 131.543 170.338 131.73 170.877C131.871 171.287 131.941 171.773 131.941 172.336C131.941 173.309 131.719 174.316 131.273 175.359C130.898 176.238 130.354 177.076 129.639 177.873C127.975 179.701 125.754 180.615 122.977 180.615ZM142.805 176.906C143.52 176.906 144.146 176.695 144.686 176.273C145.236 175.84 145.699 175.271 146.074 174.568C146.461 173.854 146.766 173.057 146.988 172.178C145.641 171.568 144.51 170.689 143.596 169.541C142.682 168.381 142.084 167.121 141.803 165.762C140.924 167.988 140.484 170.221 140.484 172.459C140.484 172.963 140.525 173.555 140.607 174.234C140.701 174.914 140.924 175.529 141.275 176.08C141.639 176.631 142.148 176.906 142.805 176.906ZM147.393 169.682C147.439 169.119 147.463 168.574 147.463 168.047C147.463 165.633 147.053 163.893 146.232 162.826C145.916 162.428 145.629 162.229 145.371 162.229C144.844 162.229 144.58 162.885 144.58 164.197C144.58 165.334 144.844 166.395 145.371 167.379C145.91 168.352 146.584 169.119 147.393 169.682ZM141.486 180.58C138.674 180.58 136.611 179.66 135.299 177.82C134.209 176.309 133.664 174.24 133.664 171.615C133.664 167.947 134.514 164.924 136.213 162.545C137.701 160.436 139.635 159.381 142.014 159.381C142.717 159.381 143.186 159.533 143.42 159.838C144.076 159.533 144.715 159.381 145.336 159.381C147.328 159.381 148.857 160.43 149.924 162.527C150.732 164.133 151.137 166.002 151.137 168.135C151.137 168.826 151.078 169.688 150.961 170.719C152.824 170.578 154.189 169.418 155.057 167.238C155.303 166.629 155.508 166.184 155.672 165.902C155.93 165.469 156.205 165.252 156.498 165.252C156.721 165.252 156.832 165.41 156.832 165.727C156.832 166.184 156.709 166.775 156.463 167.502C155.877 169.283 155.057 170.596 154.002 171.439C152.959 172.283 151.793 172.74 150.504 172.811C150.105 174.229 149.508 175.523 148.711 176.695C146.941 179.285 144.533 180.58 141.486 180.58ZM158.783 180.844C157.143 180.844 155.959 179.748 155.232 177.557C154.658 175.834 154.371 173.561 154.371 170.736V169.189C154.395 167.268 154.6 164.842 154.986 161.912C155.455 158.396 155.982 155.982 156.568 154.67C157.084 153.498 158.115 152.912 159.662 152.912C161.115 152.912 162.012 153.492 162.352 154.652C162.656 155.707 162.809 157.377 162.809 159.662C162.809 161.795 162.703 164.109 162.492 166.605C162.117 170.824 161.572 174.123 160.857 176.502C161.936 175.576 163.096 174.135 164.338 172.178C165.58 170.209 166.477 168.562 167.027 167.238C167.273 166.629 167.479 166.184 167.643 165.902C167.818 165.621 167.965 165.445 168.082 165.375C168.211 165.293 168.334 165.252 168.451 165.252C168.686 165.252 168.803 165.422 168.803 165.762C168.803 166.16 168.68 166.74 168.434 167.502C166.922 172.213 165.193 175.77 163.248 178.172C161.807 179.953 160.318 180.844 158.783 180.844ZM170.771 180.844C169.131 180.844 167.947 179.748 167.221 177.557C166.646 175.834 166.359 173.561 166.359 170.736V169.189C166.383 167.268 166.588 164.842 166.975 161.912C167.443 158.396 167.971 155.982 168.557 154.67C169.072 153.498 170.104 152.912 171.65 152.912C173.104 152.912 174 153.492 174.34 154.652C174.645 155.707 174.797 157.377 174.797 159.662C174.797 161.795 174.691 164.109 174.48 166.605C174.105 170.824 173.561 174.123 172.846 176.502C173.924 175.576 175.084 174.135 176.326 172.178C177.568 170.209 178.465 168.562 179.016 167.238C179.262 166.629 179.467 166.184 179.631 165.902C179.807 165.621 179.953 165.445 180.07 165.375C180.199 165.293 180.322 165.252 180.439 165.252C180.674 165.252 180.791 165.422 180.791 165.762C180.791 166.16 180.668 166.74 180.422 167.502C178.91 172.213 177.182 175.77 175.236 178.172C173.795 179.953 172.307 180.844 170.771 180.844ZM187.611 169.031C188.49 169.031 189.234 168.551 189.844 167.59C190.465 166.629 190.775 165.604 190.775 164.514C190.775 163.447 190.447 162.914 189.791 162.914C189.064 162.914 188.443 163.143 187.928 163.6C187.424 164.057 187.008 164.66 186.68 165.41C186.352 166.16 186.1 166.975 185.924 167.854C186.275 168.639 186.838 169.031 187.611 169.031ZM185.959 180.809C183.135 180.809 181.102 179.994 179.859 178.365C178.617 176.725 177.996 174.645 177.996 172.125C177.996 168.375 178.957 165.328 180.879 162.984C182.812 160.641 185.309 159.469 188.367 159.469C190.359 159.469 191.818 159.961 192.744 160.945C193.682 161.918 194.15 163.107 194.15 164.514C194.15 166.564 193.471 168.223 192.111 169.488C190.752 170.742 189.363 171.369 187.945 171.369C186.938 171.369 186.152 170.988 185.59 170.227C185.555 170.613 185.537 171.018 185.537 171.439C185.537 172.482 185.654 173.449 185.889 174.34C186.322 176.016 187.207 176.854 188.543 176.854C189.246 176.854 189.955 176.625 190.67 176.168C191.385 175.711 192.076 175.119 192.744 174.393C193.412 173.654 194.033 172.857 194.607 172.002C195.193 171.146 195.703 170.303 196.137 169.471C196.582 168.639 196.939 167.895 197.209 167.238C197.455 166.629 197.66 166.184 197.824 165.902C198 165.621 198.146 165.445 198.264 165.375C198.393 165.293 198.516 165.252 198.633 165.252C198.867 165.252 198.984 165.422 198.984 165.762C198.984 166.16 198.861 166.74 198.615 167.502C196.635 173.689 194.098 177.68 191.004 179.473C189.469 180.363 187.787 180.809 185.959 180.809ZM205.541 180.809C202.564 180.809 200.285 179.877 198.703 178.014C197.133 176.139 196.348 173.941 196.348 171.422C196.348 167.695 197.344 164.771 199.336 162.65C201.34 160.518 203.859 159.451 206.895 159.451C209.074 159.451 210.662 160.055 211.658 161.262C212.361 162.129 212.713 163.078 212.713 164.109C212.713 164.777 212.561 165.393 212.256 165.955C212.033 166.377 211.77 166.588 211.465 166.588C211.02 166.588 210.715 166.301 210.551 165.727C210.422 165.293 210.264 164.877 210.076 164.479C209.9 164.08 209.648 163.752 209.32 163.494C208.992 163.236 208.541 163.107 207.967 163.107C206.854 163.107 205.898 163.904 205.102 165.498C204.305 167.092 203.906 169.025 203.906 171.299C203.906 174.885 205.137 176.678 207.598 176.678C209.297 176.678 211.107 175.131 213.029 172.037C214.154 170.221 214.998 168.621 215.561 167.238C215.807 166.629 216.018 166.184 216.193 165.902C216.451 165.469 216.715 165.252 216.984 165.252C217.219 165.252 217.336 165.422 217.336 165.762C217.336 166.16 217.213 166.74 216.967 167.502C216.299 169.588 215.566 171.428 214.77 173.021C212.156 178.213 209.08 180.809 205.541 180.809ZM219.902 180.844C216.891 180.844 215.385 177.75 215.385 171.562C215.385 169.23 215.625 166.078 216.105 162.105L215.438 162.07C214.359 162 213.82 161.602 213.82 160.875C213.82 160.055 214.711 159.551 216.492 159.363C216.973 157.16 217.523 155.742 218.145 155.109C218.777 154.477 219.656 154.16 220.781 154.16C221.895 154.16 222.697 154.588 223.189 155.443C223.682 156.299 223.928 157.617 223.928 159.398C226.131 159.609 227.232 160.102 227.232 160.875C227.232 161.602 226.576 161.994 225.264 162.053L223.893 162.105C223.67 168.234 223.037 173.033 221.994 176.502C223.658 175.576 225.105 174.135 226.336 172.178C227.578 170.209 228.475 168.562 229.025 167.238C229.271 166.629 229.477 166.184 229.641 165.902C229.816 165.621 229.963 165.445 230.08 165.375C230.209 165.293 230.332 165.252 230.449 165.252C230.684 165.252 230.801 165.422 230.801 165.762C230.801 166.16 230.678 166.74 230.432 167.502C229.037 171.861 227.232 175.248 225.018 177.662C223.072 179.783 221.367 180.844 219.902 180.844ZM232.523 180.844C230.918 180.844 229.781 179.93 229.113 178.102C228.598 176.719 228.34 174.902 228.34 172.652C228.34 171.434 228.428 170.127 228.604 168.732C229.072 164.982 229.758 162.48 230.66 161.227C231.117 160.605 231.955 160.295 233.174 160.295C234.322 160.295 235.078 160.594 235.441 161.191C235.992 162.117 236.268 163.834 236.268 166.342C236.268 169.635 235.717 173.021 234.615 176.502C235.693 175.576 236.848 174.135 238.078 172.178C239.32 170.209 240.217 168.562 240.768 167.238C241.014 166.629 241.219 166.184 241.383 165.902C241.559 165.621 241.705 165.445 241.822 165.375C241.951 165.293 242.074 165.252 242.191 165.252C242.426 165.252 242.543 165.422 242.543 165.762C242.543 166.16 242.42 166.74 242.174 167.502C240.662 172.213 238.934 175.77 236.988 178.172C235.547 179.953 234.059 180.844 232.523 180.844ZM233.332 158.941C232.887 158.941 232.441 158.848 231.996 158.66C231.035 158.273 230.555 157.576 230.555 156.568C230.555 155.537 230.941 154.729 231.715 154.143C232.383 153.65 233.109 153.404 233.895 153.404C234.316 153.404 234.756 153.492 235.213 153.668C236.186 154.055 236.672 154.799 236.672 155.9C236.672 156.615 236.473 157.225 236.074 157.729C235.441 158.537 234.527 158.941 233.332 158.941ZM249.047 176.906C249.762 176.906 250.389 176.695 250.928 176.273C251.479 175.84 251.941 175.271 252.316 174.568C252.703 173.854 253.008 173.057 253.23 172.178C251.883 171.568 250.752 170.689 249.838 169.541C248.924 168.381 248.326 167.121 248.045 165.762C247.166 167.988 246.727 170.221 246.727 172.459C246.727 172.963 246.768 173.555 246.85 174.234C246.943 174.914 247.166 175.529 247.518 176.08C247.881 176.631 248.391 176.906 249.047 176.906ZM253.635 169.682C253.682 169.119 253.705 168.574 253.705 168.047C253.705 165.633 253.295 163.893 252.475 162.826C252.158 162.428 251.871 162.229 251.613 162.229C251.086 162.229 250.822 162.885 250.822 164.197C250.822 165.334 251.086 166.395 251.613 167.379C252.152 168.352 252.826 169.119 253.635 169.682ZM247.729 180.58C244.916 180.58 242.854 179.66 241.541 177.82C240.451 176.309 239.906 174.24 239.906 171.615C239.906 167.947 240.756 164.924 242.455 162.545C243.943 160.436 245.877 159.381 248.256 159.381C248.959 159.381 249.428 159.533 249.662 159.838C250.318 159.533 250.957 159.381 251.578 159.381C253.57 159.381 255.1 160.43 256.166 162.527C256.975 164.133 257.379 166.002 257.379 168.135C257.379 168.826 257.32 169.688 257.203 170.719C259.066 170.578 260.432 169.418 261.299 167.238C261.545 166.629 261.75 166.184 261.914 165.902C262.172 165.469 262.447 165.252 262.74 165.252C262.963 165.252 263.074 165.41 263.074 165.727C263.074 166.184 262.951 166.775 262.705 167.502C262.119 169.283 261.299 170.596 260.244 171.439C259.201 172.283 258.035 172.74 256.746 172.811C256.348 174.229 255.75 175.523 254.953 176.695C253.184 179.285 250.775 180.58 247.729 180.58ZM275.713 180.844C273.029 180.844 271.688 178.611 271.688 174.146C271.688 172.271 271.916 170.244 272.373 168.064C272.842 165.873 273.305 164.285 273.762 163.301C273.164 163.301 272.584 163.641 272.021 164.32C270.99 165.551 270.018 167.514 269.104 170.209C268.342 172.424 267.838 174.281 267.592 175.781C267.299 177.574 266.918 178.758 266.449 179.332C265.816 180.117 264.891 180.51 263.672 180.51C262.805 180.51 262.125 180.246 261.633 179.719C260.953 179.016 260.613 177.322 260.613 174.639C260.613 172.213 260.789 169.693 261.141 167.08C261.527 164.15 262.119 162.211 262.916 161.262C263.479 160.594 264.369 160.26 265.588 160.26C267.357 160.26 268.359 161.098 268.594 162.773C268.664 163.266 268.699 163.764 268.699 164.268C268.699 164.549 268.688 164.836 268.664 165.129C269.531 163.406 270.574 162.041 271.793 161.033C273.012 160.014 274.195 159.504 275.344 159.504C277.98 159.504 279.299 161.678 279.299 166.025C279.299 167.807 279.082 170.027 278.648 172.688C278.414 174.129 278.133 175.4 277.805 176.502C278.883 175.576 280.037 174.135 281.268 172.178C282.51 170.209 283.406 168.562 283.957 167.238C284.203 166.629 284.408 166.184 284.572 165.902C284.748 165.621 284.895 165.445 285.012 165.375C285.141 165.293 285.264 165.252 285.381 165.252C285.615 165.252 285.732 165.422 285.732 165.762C285.732 166.16 285.609 166.74 285.363 167.502C283.852 172.213 282.123 175.77 280.178 178.172C278.736 179.953 277.248 180.844 275.713 180.844Z" fill="#0C2461"/>
<path d="M69.3594 137.461C62 137.461 56.0703 135.867 51.5703 132.68C47.0703 129.445 44.8203 123.211 44.8203 113.977C44.8203 110.602 44.9844 105.797 45.3125 99.5625C46.4375 79.4531 47.9844 63.5156 49.9531 51.75C50.9844 45.4219 52.8125 40.3828 55.4375 36.6328C57.6406 33.5391 60.5 31.2188 64.0156 29.6719C69.6406 27.2344 77.2344 26.0156 86.7969 26.0156C117.453 26.0156 132.781 39.9141 132.781 67.7109C132.781 79.7578 129.172 91.5234 121.953 103.008C107.516 125.977 89.9844 137.461 69.3594 137.461ZM72.1016 119.602C76.6016 119.602 81.3125 117.516 86.2344 113.344C91.2031 109.125 95.5156 103.383 99.1719 96.1172C102.5 89.3672 104.703 81.7266 105.781 73.1953C106.109 70.3828 106.273 67.8281 106.273 65.5312C106.273 62.8594 105.992 59.9062 105.43 56.6719C104.867 53.4375 103.578 50.3203 101.562 47.3203C97.2031 41.0391 89.8438 37.8984 79.4844 37.8984C79.7656 43.9922 79.9062 50.0156 79.9062 55.9688C79.9062 75.2812 78.5 92.2969 75.6875 107.016C74.375 113.906 73.1797 118.102 72.1016 119.602ZM181.016 137.461C174.125 137.461 168.289 136.43 163.508 134.367C148.789 127.992 141.43 113.016 141.43 89.4375C141.43 81.0938 142.391 73.2188 144.312 65.8125C147.266 54.4688 152.352 45.3047 159.57 38.3203C167.68 30.4453 178.062 26.5078 190.719 26.5078C195.594 26.5078 199.812 27.1875 203.375 28.5469C209.938 31.0781 214.766 35.3672 217.859 41.4141C220.109 45.7734 221.234 50.3203 221.234 55.0547C221.234 59.1328 220.484 62.6016 218.984 65.4609C217.812 67.6172 216.43 68.6953 214.836 68.6953C212.445 68.6953 210.922 67.2422 210.266 64.3359C208.578 57.1641 206.398 51.9375 203.727 48.6562C201.102 45.3281 197.82 43.6641 193.883 43.6641C190.508 43.6641 187.461 45.3516 184.742 48.7266C182.023 52.0547 179.727 56.6953 177.852 62.6484C176.023 68.6016 174.758 75.5625 174.055 83.5312C173.914 85.4062 173.844 87.5391 173.844 89.9297C173.844 94.3828 174.031 98.0391 174.406 100.898C176.047 113.836 180.289 120.305 187.133 120.305C191.117 120.305 194.703 118.664 197.891 115.383C201.125 112.055 204.195 106.828 207.102 99.7031C208.32 96.75 210.125 95.2734 212.516 95.2734C214.109 95.2734 215.281 96.3516 216.031 98.5078C216.594 100.148 216.875 102.094 216.875 104.344C216.875 108.234 215.984 112.266 214.203 116.438C212.703 119.953 210.523 123.305 207.664 126.492C201.008 133.805 192.125 137.461 181.016 137.461Z" fill="#0C2461"/>
</svg>
