<svg width="6" height="20" viewBox="0 0 6 20" fill="none" xmlns="http://www.w3.org/2000/svg">
<path d="M0.5 10C0.5 10.663 0.763392 11.2989 1.23223 11.7678C1.70107 12.2366 2.33696 12.5 3 12.5C3.66304 12.5 4.29892 12.2366 4.76776 11.7678C5.23661 11.2989 5.5 10.663 5.5 10C5.5 9.33696 5.23661 8.70107 4.76776 8.23223C4.29892 7.76339 3.66304 7.5 3 7.5C2.33696 7.5 1.70107 7.76339 1.23223 8.23223C0.763392 8.70107 0.5 9.33696 0.5 10ZM0.5 2.5C0.5 3.16304 0.763392 3.79893 1.23223 4.26777C1.70107 4.73661 2.33696 5 3 5C3.66304 5 4.29892 4.73661 4.76776 4.26777C5.23661 3.79893 5.5 3.16304 5.5 2.5C5.5 1.83696 5.23661 1.20107 4.76776 0.732233C4.29892 0.263392 3.66304 0 3 0C2.33696 0 1.70107 0.263392 1.23223 0.732233C0.763392 1.20107 0.5 1.83696 0.5 2.5V2.5ZM0.5 17.5C0.5 18.163 0.763392 18.7989 1.23223 19.2678C1.70107 19.7366 2.33696 20 3 20C3.66304 20 4.29892 19.7366 4.76776 19.2678C5.23661 18.7989 5.5 18.163 5.5 17.5C5.5 16.837 5.23661 16.2011 4.76776 15.7322C4.29892 15.2634 3.66304 15 3 15C2.33696 15 1.70107 15.2634 1.23223 15.7322C0.763392 16.2011 0.5 16.837 0.5 17.5Z" fill="#0C2461"/>
</svg>
