<svg width="26" height="23" viewBox="0 0 26 23" fill="none" xmlns="http://www.w3.org/2000/svg">
<path d="M13.0006 1.99144C11.5802 0.710814 9.72109 5.95049e-05 7.79154 0C6.77026 0.00104263 5.75926 0.200115 4.81674 0.58576C3.87421 0.971406 3.01877 1.53601 2.29964 2.24708C-0.767634 5.26748 -0.76633 9.99172 2.30225 12.9993L11.86 22.3711C12.0816 22.7533 12.5091 23 13.0006 23C13.2024 22.9981 13.4009 22.9498 13.5802 22.859C13.7595 22.7682 13.9146 22.6374 14.033 22.4772L23.6989 12.9993C26.7675 9.99044 26.7675 5.26748 23.6963 2.24197C22.9775 1.5322 22.1228 0.968747 21.1812 0.58399C20.2396 0.199233 19.2297 0.000766419 18.2096 0C16.2801 0.000309273 14.4211 0.71103 13.0006 1.99144V1.99144ZM21.8531 4.04935C23.8905 6.05741 23.8918 9.19412 21.8557 11.192L13.0006 19.8748L4.14548 11.192C2.10932 9.19412 2.11063 6.05741 4.14288 4.05446C5.13358 3.08814 6.42932 2.55641 7.79154 2.55641C9.15376 2.55641 10.4443 3.08814 11.4272 4.05191L12.079 4.69101C12.1999 4.80981 12.3436 4.90406 12.5017 4.96837C12.6598 5.03268 12.8294 5.06578 13.0006 5.06578C13.1718 5.06578 13.3413 5.03268 13.4994 4.96837C13.6576 4.90406 13.8012 4.80981 13.9222 4.69101L14.574 4.05191C16.545 2.1231 19.8847 2.12821 21.8531 4.04935V4.04935Z" fill="black"/>
</svg>
