<svg width="25" height="25" viewBox="0 0 25 25" fill="none" xmlns="http://www.w3.org/2000/svg">
<path d="M4.1665 6.25H20.8332L19.1873 21.0625C19.1309 21.5723 18.8884 22.0433 18.5063 22.3854C18.1243 22.7275 17.6294 22.9167 17.1165 22.9167H7.88317C7.37029 22.9167 6.87542 22.7275 6.49332 22.3854C6.11123 22.0433 5.86875 21.5723 5.81234 21.0625L4.1665 6.25Z" stroke="white" stroke-width="2.08333" stroke-linecap="round" stroke-linejoin="round"/>
<path d="M7.65104 3.2781C7.81953 2.92078 8.08615 2.61873 8.4198 2.40718C8.75344 2.19563 9.14036 2.08331 9.53542 2.08331H15.4646C15.8598 2.08311 16.247 2.19534 16.5808 2.4069C16.9147 2.61846 17.1814 2.92062 17.35 3.2781L18.75 6.24998H6.25L7.65104 3.2781Z" stroke="white" stroke-width="2.08333" stroke-linecap="round" stroke-linejoin="round"/>
<path d="M2.08325 6.25H22.9166" stroke="white" stroke-width="2.08333" stroke-linecap="round" stroke-linejoin="round"/>
<path d="M10.4165 11.4583V16.6666" stroke="white" stroke-width="2.08333" stroke-linecap="round" stroke-linejoin="round"/>
<path d="M14.5833 11.4583V16.6666" stroke="white" stroke-width="2.08333" stroke-linecap="round" stroke-linejoin="round"/>
</svg>
