<svg width="26" height="26" viewBox="0 0 26 26" fill="none" xmlns="http://www.w3.org/2000/svg">
<path d="M20.1684 13.8141C21.8875 13.8194 23.2812 15.2379 23.2917 16.9928V20.1032C23.2813 21.8597 21.889 23.2809 20.1684 23.2916H17.1215C15.4024 23.2809 14.0129 21.8581 14.0077 20.1032V16.9928C14.0077 15.2372 15.4018 13.8141 17.1215 13.8141H20.1684ZM7.08293 13.8141C7.40285 13.7791 7.71425 13.9337 7.88492 14.2121C8.0556 14.4905 8.0556 14.844 7.88492 15.1224C7.71425 15.4009 7.40285 15.5554 7.08293 15.5204H5.83169C5.03359 15.5204 4.38512 16.1781 4.37987 16.9928V20.0642C4.40017 20.8724 5.03989 21.5211 5.83169 21.5365H8.8977C9.28187 21.5391 9.65117 21.3851 9.92372 21.1087C10.1963 20.8323 10.3495 20.4564 10.3495 20.0642V15.4522L10.3365 15.3375C10.3221 15.0323 10.4684 14.7384 10.726 14.5717C11.0157 14.3842 11.3881 14.3952 11.6666 14.5996C11.9452 14.8041 12.0742 15.1608 11.9924 15.5009V20.0934C11.9924 21.8543 10.594 23.2819 8.86905 23.2819H5.83169C4.12164 23.2456 2.74385 21.8391 2.70837 20.0934V16.9928C2.70837 16.148 3.03774 15.3381 3.62375 14.7417C4.20976 14.1453 5.00422 13.8115 5.83169 13.8141H7.08293ZM20.1684 15.5204H17.1215C16.3249 15.5204 15.6792 16.1796 15.6792 16.9928V20.1032C15.6767 20.4944 15.8278 20.8705 16.0988 21.1471C16.3699 21.4238 16.7382 21.5781 17.1215 21.5755H20.1684C20.5517 21.5781 20.92 21.4238 21.1911 21.1471C21.4621 20.8705 21.6132 20.4944 21.6107 20.1032V16.9928C21.6107 16.6023 21.4587 16.2278 21.1882 15.9517C20.9177 15.6755 20.5509 15.5204 20.1684 15.5204ZM20.1684 2.70825C21.8747 2.74961 23.2469 4.15467 23.2822 5.89667V8.99733C23.2924 9.84039 22.974 10.653 22.3972 11.2565C21.8204 11.8599 21.0324 12.2047 20.2066 12.215H18.9458C18.5187 12.1683 18.1948 11.8004 18.1948 11.3618C18.1948 10.9233 18.5187 10.5553 18.9458 10.5087H20.1684C20.5551 10.5061 20.9248 10.3461 21.1956 10.0642C21.4664 9.78235 21.6158 9.40184 21.6107 9.00708V5.89667C21.6004 5.08792 20.9606 4.43485 20.1684 4.42434H17.1215C16.3249 4.42434 15.6792 5.08353 15.6792 5.89667V10.5477L15.6679 10.6633C15.5995 11.0787 15.2433 11.3913 14.8196 11.3862C14.5975 11.3811 14.3866 11.2855 14.2341 11.1206C14.0815 10.9557 14 10.7353 14.0077 10.5087V5.89667C14.0052 5.05195 14.3321 4.24093 14.9163 3.64271C15.5006 3.04448 16.294 2.70825 17.1215 2.70825H20.1684ZM8.8786 2.70825C10.6014 2.71361 11.9967 4.13798 12.0019 5.89667V9.00708C12.0019 9.85181 11.6726 10.6618 11.0865 11.2582C10.5005 11.8546 9.70607 12.1883 8.8786 12.1858H5.83169C4.11262 12.1804 2.71885 10.762 2.70837 9.00708V5.89667C2.7188 4.14018 4.11107 2.7189 5.83169 2.70825H8.8786ZM8.8786 4.42434H5.83169C5.44424 4.41648 5.06999 4.56813 4.79328 4.8451C4.51657 5.12207 4.36069 5.50106 4.36077 5.89667V9.00708C4.35289 9.40774 4.50533 9.79436 4.78291 10.0777C5.06049 10.3611 5.43922 10.5167 5.83169 10.5087H8.8786C9.26532 10.5061 9.63505 10.3461 9.90581 10.0642C10.1766 9.78235 10.326 9.40184 10.3209 9.00708V5.89667C10.3157 5.08574 9.67297 4.42966 8.8786 4.42434Z" fill="white"/>
</svg>
