<svg width="25" height="25" viewBox="0 0 25 25" fill="none" xmlns="http://www.w3.org/2000/svg">
<path d="M18.75 8.33341H20.8333C21.1096 8.33341 21.3746 8.44316 21.5699 8.63851C21.7653 8.83386 21.875 9.09881 21.875 9.37508V21.8751C21.875 22.1513 21.7653 22.4163 21.5699 22.6117C21.3746 22.807 21.1096 22.9167 20.8333 22.9167H4.16667C3.8904 22.9167 3.62545 22.807 3.4301 22.6117C3.23475 22.4163 3.125 22.1513 3.125 21.8751V9.37508C3.125 9.09881 3.23475 8.83386 3.4301 8.63851C3.62545 8.44316 3.8904 8.33341 4.16667 8.33341H6.25V7.29175C6.25 5.63414 6.90848 4.04443 8.08058 2.87233C9.25269 1.70023 10.8424 1.04175 12.5 1.04175C14.1576 1.04175 15.7473 1.70023 16.9194 2.87233C18.0915 4.04443 18.75 5.63414 18.75 7.29175V8.33341ZM16.6667 8.33341V7.29175C16.6667 6.18668 16.2277 5.12687 15.4463 4.34547C14.6649 3.56407 13.6051 3.12508 12.5 3.12508C11.3949 3.12508 10.3351 3.56407 9.55372 4.34547C8.77232 5.12687 8.33333 6.18668 8.33333 7.29175V8.33341H16.6667ZM11.4583 14.5834V16.6667H13.5417V14.5834H11.4583ZM7.29167 14.5834V16.6667H9.375V14.5834H7.29167ZM15.625 14.5834V16.6667H17.7083V14.5834H15.625Z" fill="#0C2461"/>
</svg>
