<svg width="25" height="25" viewBox="0 0 25 25" fill="none" xmlns="http://www.w3.org/2000/svg">
<path d="M13.0884 6.66504H11.9141C11.8067 6.66504 11.7188 6.75293 11.7188 6.86035V13.5815C11.7188 13.645 11.7481 13.7036 11.7994 13.7402L15.835 16.687C15.9229 16.7505 16.045 16.7334 16.1085 16.6455L16.8067 15.6934C16.8726 15.603 16.8531 15.481 16.7652 15.4199L13.2837 12.9028V6.86035C13.2837 6.75293 13.1959 6.66504 13.0884 6.66504ZM18.4546 8.50098L22.2828 9.43604C22.4048 9.46534 22.5245 9.37256 22.5245 9.24805L22.544 5.30518C22.544 5.1416 22.356 5.04883 22.2291 5.15137L18.3814 8.15674C18.3523 8.17924 18.3302 8.20948 18.3175 8.244C18.3049 8.27852 18.3022 8.31591 18.3099 8.35187C18.3175 8.38783 18.3352 8.4209 18.3608 8.44728C18.3864 8.47366 18.4189 8.49227 18.4546 8.50098ZM22.5489 15.8521L21.1646 15.376C21.1163 15.3594 21.0635 15.3624 21.0174 15.3843C20.9714 15.4062 20.9357 15.4453 20.918 15.4932C20.8716 15.6177 20.8228 15.7398 20.7715 15.8618C20.337 16.8897 19.7144 17.8149 18.9185 18.6084C18.1315 19.3979 17.1987 20.0272 16.1719 20.4614C15.1083 20.9111 13.9649 21.142 12.8101 21.1401C11.6431 21.1401 10.5127 20.9131 9.4483 20.4614C8.42154 20.0272 7.48878 19.3979 6.70171 18.6084C5.90826 17.8149 5.2857 16.8897 4.84869 15.8618C4.40146 14.7976 4.17233 13.6544 4.17486 12.5C4.17486 11.333 4.40191 10.2002 4.85357 9.13575C5.28814 8.10791 5.9107 7.18262 6.7066 6.38916C7.49366 5.59966 8.42642 4.97036 9.45318 4.53614C10.5127 4.08448 11.6456 3.85742 12.8126 3.85742C13.9795 3.85742 15.1099 4.08448 16.1744 4.53614C17.2011 4.97036 18.1339 5.59966 18.921 6.38916C19.17 6.64063 19.4044 6.90186 19.6192 7.17774L21.0792 6.03516C19.1578 3.5791 16.167 1.99951 12.8077 2.00196C6.95806 2.0044 2.2608 6.75537 2.31939 12.6074C2.37798 18.3569 7.05328 22.9981 12.8126 22.9981C17.3414 22.9981 21.1988 20.127 22.6685 16.106C22.7051 16.0034 22.6514 15.8887 22.5489 15.8521Z" fill="#0C2461"/>
</svg>
