<svg width="25" height="25" viewBox="0 0 25 25" fill="none" xmlns="http://www.w3.org/2000/svg">
<path d="M20.8333 19.0938C20.8333 22.5197 16.0775 22.9166 12.5 22.9166C12.1394 22.9166 11.784 22.9114 11.435 22.901C11.0199 22.8905 10.6928 22.5458 10.7054 22.1322C10.7169 21.7197 11.0754 21.4093 11.4779 21.4062C11.8134 21.4156 12.154 21.4197 12.5 21.4197C17.0304 21.4197 19.328 20.6375 19.328 19.0938C19.328 17.5355 17.0304 16.7449 12.5 16.7449C7.96956 16.7449 5.67187 17.5282 5.67187 19.0729C5.67187 19.5781 5.85216 20.3104 7.41715 20.8375C7.81128 20.9698 8.02197 21.3937 7.88885 21.7843C7.75468 22.1749 7.3291 22.3885 6.93392 22.2531C4.64671 21.4833 4.16663 20.0989 4.16663 19.0729C4.16663 15.7159 8.73026 15.2665 12.2795 15.2496L12.8967 15.2498C15.2636 15.2619 20.8333 15.4709 20.8333 19.0938ZM12.5 2.08325C15.5943 2.08325 18.1111 4.58527 18.1111 7.6602C18.1111 10.7341 15.5943 13.2361 12.5 13.2361C9.40562 13.2361 6.8878 10.7341 6.8878 7.6602C6.8878 4.58527 9.40562 2.08325 12.5 2.08325ZM12.5 3.58009C10.2358 3.58009 8.39409 5.41025 8.39409 7.6602C8.39409 9.9091 10.2358 11.7393 12.5 11.7393C14.7641 11.7393 16.6058 9.9091 16.6058 7.6602C16.6058 5.41025 14.7641 3.58009 12.5 3.58009Z" fill="white"/>
</svg>
