<svg width="25" height="25" viewBox="0 0 25 25" fill="none" xmlns="http://www.w3.org/2000/svg">
<path d="M9.51535 21.6388V18.4537C9.51535 17.6406 10.1793 16.9815 10.9983 16.9815H13.9923C14.3856 16.9815 14.7628 17.1366 15.0409 17.4127C15.319 17.6888 15.4752 18.0632 15.4752 18.4537V21.6388C15.4728 21.9768 15.6063 22.3019 15.8462 22.5418C16.0861 22.7817 16.4125 22.9166 16.753 22.9166H18.7956C19.7496 22.919 20.6653 22.5445 21.3408 21.8758C22.0162 21.207 22.3958 20.2989 22.3958 19.3518V10.2779C22.3958 9.5129 22.0542 8.78725 21.4631 8.29645L14.5146 2.78728C13.3059 1.82134 11.574 1.85252 10.4014 2.86135L3.61143 8.29645C2.9924 8.77279 2.62241 9.50058 2.60413 10.2779V19.3426C2.60413 21.3164 4.21598 22.9166 6.20431 22.9166H8.20026C8.90749 22.9166 9.48225 22.3501 9.48737 21.6481L9.51535 21.6388Z" fill="white"/>
</svg>
