<svg width="25" height="25" viewBox="0 0 25 25" fill="none" xmlns="http://www.w3.org/2000/svg">
<path d="M12.4999 4.6875C14.1152 4.6875 15.4643 3.42871 15.6249 1.85547C15.6396 1.70898 15.4785 1.5625 15.332 1.5625C15.2528 1.56258 15.1743 1.57748 15.1005 1.60645C15.0908 1.61035 14.0703 2.00195 12.4999 2.00195C10.9296 2.00195 9.90717 1.61133 9.89936 1.60645C9.81614 1.5775 9.72868 1.56264 9.64057 1.5625H9.63764C9.60114 1.56443 9.56537 1.57355 9.5324 1.58933C9.49943 1.60512 9.46989 1.62725 9.44549 1.65446C9.42109 1.68168 9.40229 1.71344 9.39019 1.74794C9.37808 1.78243 9.3729 1.81897 9.37495 1.85547C9.53852 3.42578 10.8886 4.6875 12.4999 4.6875Z" fill="#6AB1D7"/>
<path d="M23.6959 4.38968L17.3829 2.17972C17.3558 2.17029 17.3271 2.16691 17.2986 2.16983C17.2701 2.17275 17.2426 2.1819 17.2181 2.19662C17.1935 2.21134 17.1725 2.23128 17.1565 2.25502C17.1405 2.27876 17.13 2.30573 17.1255 2.33402C16.9429 3.42829 16.378 4.42231 15.5315 5.1393C14.6849 5.85629 13.6114 6.24978 12.502 6.24978C11.3926 6.24978 10.3191 5.85629 9.47255 5.1393C8.62596 4.42231 8.06112 3.42829 7.87847 2.33402C7.87419 2.30526 7.86354 2.27783 7.8473 2.25371C7.83106 2.2296 7.80965 2.20941 7.78462 2.19462C7.75958 2.17984 7.73157 2.17083 7.70261 2.16825C7.67366 2.16567 7.64449 2.16959 7.61724 2.17972L1.30425 4.38968C1.12755 4.45154 0.978943 4.57478 0.885473 4.73699C0.792003 4.8992 0.759887 5.08958 0.794972 5.27347L1.60698 9.57034C1.63823 9.73412 1.72106 9.88361 1.84336 9.99694C1.96565 10.1103 2.12099 10.1815 2.28667 10.2002L4.67339 10.4698C4.77082 10.4807 4.86055 10.528 4.92478 10.602C4.989 10.6761 5.02302 10.7717 5.02007 10.8697L4.66216 22.6324C4.65741 22.784 4.6969 22.9337 4.77581 23.0632C4.85471 23.1927 4.96961 23.2965 5.1065 23.3618C5.22028 23.4133 5.34395 23.4391 5.4688 23.4375H19.5313C19.6561 23.4391 19.7798 23.4133 19.8936 23.3618C20.0305 23.2965 20.1454 23.1927 20.2243 23.0632C20.3032 22.9337 20.3427 22.784 20.3379 22.6324L19.98 10.8697C19.9771 10.7717 20.0111 10.6761 20.0753 10.602C20.1395 10.528 20.2293 10.4807 20.3267 10.4698L22.7134 10.2002C22.8791 10.1815 23.0345 10.1103 23.1567 9.99694C23.279 9.88361 23.3619 9.73412 23.3931 9.57034L24.2051 5.27347C24.2402 5.08958 24.2081 4.8992 24.1146 4.73699C24.0212 4.57478 23.8725 4.45154 23.6959 4.38968Z" fill="#6AB1D7"/>
</svg>
