<svg width="25" height="25" viewBox="0 0 25 25" fill="none" xmlns="http://www.w3.org/2000/svg">
<path fill-rule="evenodd" clip-rule="evenodd" d="M1.56257 12.5C1.56257 12.7072 1.64488 12.9059 1.79139 13.0524C1.9379 13.1989 2.13662 13.2812 2.34382 13.2812L20.7704 13.2812L15.8532 18.1969C15.7806 18.2695 15.7229 18.3557 15.6836 18.4506C15.6443 18.5455 15.6241 18.6473 15.6241 18.75C15.6241 18.8527 15.6443 18.9544 15.6836 19.0493C15.7229 19.1442 15.7806 19.2305 15.8532 19.3031C15.9258 19.3758 16.0121 19.4334 16.107 19.4727C16.2019 19.512 16.3036 19.5322 16.4063 19.5322C16.509 19.5322 16.6108 19.512 16.7057 19.4727C16.8006 19.4334 16.8868 19.3758 16.9594 19.3031L23.2094 13.0531C23.2822 12.9805 23.3399 12.8943 23.3793 12.7994C23.4187 12.7045 23.439 12.6028 23.439 12.5C23.439 12.3972 23.4187 12.2955 23.3793 12.2006C23.3399 12.1056 23.2822 12.0194 23.2094 11.9469L16.9594 5.69687C16.8868 5.62423 16.8006 5.56661 16.7057 5.5273C16.6108 5.48799 16.509 5.46775 16.4063 5.46775C16.3036 5.46775 16.2019 5.48799 16.107 5.5273C16.0121 5.56661 15.9258 5.62423 15.8532 5.69687C15.7806 5.7695 15.7229 5.85574 15.6836 5.95064C15.6443 6.04555 15.6241 6.14727 15.6241 6.24999C15.6241 6.35271 15.6443 6.45443 15.6836 6.54934C15.7229 6.64425 15.7806 6.73048 15.8532 6.80311L20.7704 11.7187L2.34382 11.7187C2.13662 11.7187 1.9379 11.801 1.79139 11.9476C1.64488 12.0941 1.56257 12.2928 1.56257 12.5Z" fill="white"/>
</svg>
