<svg width="25" height="25" viewBox="0 0 25 25" fill="none" xmlns="http://www.w3.org/2000/svg">
<path d="M22.1442 11.8852C22.5678 11.8852 22.9122 12.2279 22.9122 12.6518V16.7707C22.9122 20.4468 20.5437 22.9166 17.0171 22.9166H7.97733C4.45177 22.9166 2.08331 20.4468 2.08331 16.7707C2.08331 16.3477 2.42867 16.004 2.85228 16.004C3.27693 16.004 3.62124 16.3477 3.62124 16.7707C3.62124 19.5728 5.33029 21.3822 7.97733 21.3822H17.0171C19.6652 21.3822 21.3763 19.5728 21.3763 16.7707V12.6518C21.3763 12.2279 21.7196 11.8852 22.1442 11.8852ZM20.5819 2.88208L20.7297 3.02077L21.9766 4.26558C22.5838 4.87079 22.9166 5.67706 22.9166 6.53124C22.9166 7.31614 22.637 8.05816 22.1226 8.64255L21.9766 8.79794L14.2848 16.4772C13.7707 16.9905 13.1031 17.2937 12.3863 17.3446L12.1699 17.3522H8.3303C8.12371 17.3522 7.92547 17.2689 7.78044 17.1199C7.66525 17.0016 7.59213 16.8506 7.56963 16.6893L7.56238 16.5668L7.65941 12.7022C7.67743 12.0023 7.93603 11.3404 8.3921 10.8173L8.5348 10.6646L16.1911 3.02077C17.394 1.81882 19.3223 1.7726 20.5819 2.88208ZM17.3964 3.99702L17.2772 4.10516L16.647 4.73433L18.5992 6.68332C18.8986 6.98333 18.8986 7.46771 18.5992 7.76875C18.4489 7.91771 18.2517 7.99272 18.0556 7.99272C17.8978 7.99272 17.7407 7.94472 17.6073 7.84925L17.512 7.76875L15.5609 5.81872L9.62199 11.749C9.39394 11.9758 9.25098 12.2677 9.20822 12.5819L9.19525 12.7407L9.11909 15.8178H12.1699C12.5026 15.8178 12.8184 15.7076 13.0753 15.503L13.1987 15.3928L20.8904 7.71355C21.5042 7.09981 21.5403 6.12529 20.9987 5.46997L20.8904 5.35101L19.6436 4.10516C19.0289 3.4924 18.0528 3.45636 17.3964 3.99702ZM11.8078 2.12273C12.2324 2.12273 12.5767 2.46649 12.5767 2.88941C12.5767 3.31337 12.2324 3.65609 11.8078 3.65609H7.97753C5.3305 3.65609 3.62041 5.46653 3.62041 8.26866V12.1948C3.62041 12.6177 3.2761 12.9614 2.85249 12.9614C2.42783 12.9614 2.08352 12.6177 2.08352 12.1948V8.26866C2.08352 4.59256 4.45198 2.12273 7.97753 2.12273H11.8078Z" fill="black"/>
</svg>
