<svg width="30" height="30" viewBox="0 0 30 30" fill="none" xmlns="http://www.w3.org/2000/svg">
<path d="M15 27.4999C12.5267 27.5014 10.1085 26.7691 8.05155 25.3956C5.99459 24.0222 4.3913 22.0694 3.4446 19.7845C2.4979 17.4995 2.25034 14.985 2.73327 12.5593C3.21619 10.1336 4.40788 7.90562 6.15752 6.15743C8.50269 3.81226 11.6834 2.49475 15 2.49475C18.3166 2.49475 21.4973 3.81226 23.8425 6.15743C26.1877 8.50261 27.5052 11.6834 27.5052 14.9999C27.5052 18.3165 26.1877 21.4973 23.8425 23.8424C22.6837 25.0065 21.3055 25.9291 19.7876 26.557C18.2698 27.1848 16.6425 27.5053 15 27.4999ZM5.00002 15.2149C5.02843 17.8576 6.10182 20.3816 7.98561 22.2353C9.8694 24.0889 12.4104 25.1215 15.0532 25.1073C17.696 25.0931 20.2257 24.0333 22.0895 22.1595C23.9532 20.2857 24.9994 17.7503 24.9994 15.1074C24.9994 12.4646 23.9532 9.92919 22.0895 8.0554C20.2257 6.1816 17.696 5.12178 15.0532 5.10758C12.4104 5.09337 9.8694 6.12593 7.98561 7.97958C6.10182 9.83324 5.02843 12.3572 5.00002 14.9999V15.2149ZM11.7613 19.9999L9.99876 18.2374L13.2375 14.9999L10 11.7624L11.7625 9.99993L15 13.2374L18.2375 9.99993L20 11.7624L16.7625 14.9999L20 18.2374L18.24 19.9999L15 16.7624L11.7625 19.9999H11.7613Z" fill="#FF0000"/>
</svg>
