<svg width="30" height="25" viewBox="0 0 30 25" fill="none" xmlns="http://www.w3.org/2000/svg">
<g clip-path="url(#clip0)">
<path d="M10.5 12.5C13.8141 12.5 16.5 9.70215 16.5 6.25C16.5 2.79785 13.8141 0 10.5 0C7.18594 0 4.5 2.79785 4.5 6.25C4.5 9.70215 7.18594 12.5 10.5 12.5ZM14.7 14.0625H13.9172C12.8766 14.5605 11.7188 14.8438 10.5 14.8438C9.28125 14.8438 8.12813 14.5605 7.08281 14.0625H6.3C2.82187 14.0625 0 17.002 0 20.625V22.6562C0 23.9502 1.00781 25 2.25 25H15.1359C15.0234 24.668 14.9766 24.3164 15.0141 23.96L15.3328 20.9863L15.3891 20.4443L15.7594 20.0586L19.3828 16.2842C18.2344 14.9316 16.5703 14.0625 14.7 14.0625ZM16.8234 21.1572L16.5047 24.1357C16.4531 24.6338 16.8563 25.0537 17.3297 24.9951L20.1844 24.6631L26.6484 17.9297L23.2875 14.4287L16.8234 21.1572ZM29.6719 13.1299L27.8953 11.2793C27.4594 10.8252 26.7469 10.8252 26.3109 11.2793L24.5391 13.125L24.3469 13.3252L27.7125 16.8262L29.6719 14.7852C30.1078 14.3262 30.1078 13.5889 29.6719 13.1299Z" fill="#0C2461"/>
</g>
<defs>
<clipPath id="clip0">
<rect width="30" height="25" fill="white"/>
</clipPath>
</defs>
</svg>
