<svg width="25" height="25" viewBox="0 0 25 25" fill="none" xmlns="http://www.w3.org/2000/svg">
<path d="M4.68677 7.32217C5.0154 7.22089 5.37849 7.33707 5.58568 7.62195C5.81588 7.93849 5.78865 8.37396 5.52079 8.65934L4.7871 9.20282C4.43945 9.49165 4.23721 9.91934 4.23456 10.3713V18.6593C4.24448 20.0094 5.33915 21.1001 6.68927 21.105H10.8559V21.1231C11.3062 21.1231 11.6712 21.4881 11.6712 21.9383C11.6712 22.3886 11.3062 22.7535 10.8559 22.7535H6.68927C4.43517 22.7486 2.60911 20.9225 2.60413 18.6684V10.3713C2.61854 9.41252 3.06858 8.51244 3.82695 7.92565L4.57876 7.36405L4.68677 7.32217ZM10.0226 2.91659C11.398 1.81101 13.3573 1.81101 14.7328 2.91659L20.9918 7.90753C21.7335 8.50404 22.1689 9.40145 22.1784 10.3532L22.1693 18.6593C22.1693 20.9155 20.3404 22.7445 18.0842 22.7445H16.2726C15.1806 22.7445 14.2939 21.8619 14.2889 20.7698V17.0198L14.2804 16.9254C14.236 16.6803 14.0215 16.4945 13.7635 16.4945H11.0462C10.9052 16.4945 10.7702 16.5511 10.6714 16.6516C10.5726 16.752 10.5184 16.888 10.5208 17.0289V18.4601C10.5208 18.9103 10.1558 19.2753 9.70558 19.2753C9.25534 19.2753 8.89036 18.9103 8.89036 18.4601V17.0289C8.89036 16.4548 9.11844 15.9041 9.52443 15.4981C9.93042 15.0921 10.4811 14.8641 11.0552 14.8641H13.7726C14.9647 14.869 15.9284 15.8368 15.9284 17.0289V20.7698C15.9284 20.9599 16.0825 21.1141 16.2726 21.1141H18.1295C19.4802 21.1141 20.5751 20.0191 20.5751 18.6684V10.3713C20.5685 9.91165 20.3557 9.47932 19.9954 9.19376L13.7364 4.20282C12.9471 3.55303 11.8082 3.55303 11.019 4.20282L9.00811 5.70644C8.63542 5.97408 8.11633 5.88892 7.84869 5.51623C7.58105 5.14353 7.66622 4.62444 8.03891 4.35681L10.0226 2.91659Z" fill="white"/>
</svg>
