<svg width="25" height="25" viewBox="0 0 25 25" fill="none" xmlns="http://www.w3.org/2000/svg">
<path d="M24.2676 13.3301L16.0645 21.5333C15.332 22.2657 14.0625 21.753 14.0625 20.7032V16.0157H7.42188C6.77246 16.0157 6.25 15.4932 6.25 14.8438V10.1563C6.25 9.5069 6.77246 8.98444 7.42188 8.98444H14.0625V4.29694C14.0625 3.25202 15.3271 2.73444 16.0645 3.46686L24.2676 11.67C24.7217 12.129 24.7217 12.8712 24.2676 13.3301ZM9.375 21.2891V19.336C9.375 19.0137 9.11133 18.7501 8.78906 18.7501H4.6875C3.82324 18.7501 3.125 18.0518 3.125 17.1876V7.81256C3.125 6.9483 3.82324 6.25006 4.6875 6.25006H8.78906C9.11133 6.25006 9.375 5.98639 9.375 5.66412V3.711C9.375 3.38873 9.11133 3.12506 8.78906 3.12506H4.6875C2.09961 3.12506 0 5.22467 0 7.81256V17.1876C0 19.7755 2.09961 21.8751 4.6875 21.8751H8.78906C9.11133 21.8751 9.375 21.6114 9.375 21.2891Z" fill="#0C2461"/>
</svg>
