<svg width="25" height="25" viewBox="0 0 25 25" fill="none" xmlns="http://www.w3.org/2000/svg">
<path d="M8.74286 3.78535C10.0897 2.28445 12.1908 1.71308 14.1117 2.32542C16.0325 2.93775 17.416 4.62 17.6469 6.62385L17.8015 6.62694C19.3042 6.68693 21.0221 7.63107 21.5087 10.2864L22.2957 16.403C22.5976 18.5273 22.2041 20.1663 21.289 21.2559C20.3739 22.3455 18.8731 22.8766 16.7135 22.8766H8.37682C6.67082 23.0907 4.971 22.436 3.84873 21.1327C2.72645 19.8293 2.33076 18.0504 2.79464 16.3938L2.81739 16.2874C2.92564 15.9084 3.29986 15.6583 3.7006 15.7162C4.13778 15.7795 4.44096 16.1853 4.37779 16.6227C4.09179 17.8214 4.34241 19.0853 5.06412 20.0839C5.95084 20.9249 7.14867 21.3565 8.36767 21.2742H16.7135C18.3698 21.2742 19.5137 20.9263 20.1085 20.2029C20.7034 19.4796 20.9413 18.2709 20.7034 16.6227L19.9255 10.5703C19.651 9.10526 18.7999 8.18961 17.6469 8.18961H7.43426C6.33612 8.18961 5.48507 9.10526 5.14648 10.6344L4.92685 11.9804C4.82599 12.3917 4.42417 12.6546 4.00717 12.5823C3.59017 12.5099 3.3003 12.1269 3.34371 11.7057L3.57249 10.3322C4.17646 7.5395 5.96093 6.62385 7.43426 6.62385H16.018C15.8923 5.81243 15.4917 5.06889 14.8833 4.51786C13.4375 3.22411 11.2176 3.34706 9.92336 4.79256V4.88412L9.83363 4.96706C9.64353 5.11775 9.39333 5.17617 9.15273 5.1209C8.87202 5.05642 8.64702 4.84699 8.56248 4.57151C8.47794 4.29603 8.5467 3.99634 8.74286 3.78535ZM15.5608 10.7535L15.6794 10.7717C15.7988 10.7994 15.9131 10.8457 16.018 10.9091C16.1116 10.983 16.1947 11.0692 16.2651 11.1655C16.3048 11.2099 16.333 11.2633 16.3474 11.3211C16.3753 11.3757 16.3939 11.4345 16.4023 11.4951C16.4118 11.5558 16.4118 11.6176 16.4023 11.6782C16.4054 11.7983 16.3804 11.9175 16.3291 12.0262C16.2833 12.1442 16.2076 12.2483 16.1095 12.3283C15.9405 12.5009 15.7103 12.5996 15.4689 12.603C15.3468 12.5982 15.2262 12.5734 15.112 12.5298C14.9212 12.4163 14.7781 12.2374 14.7094 12.0262C14.661 11.9169 14.639 11.7976 14.6453 11.6782C14.636 11.6175 14.636 11.5558 14.6453 11.4951V11.3211L14.7368 11.1655C14.7629 11.1122 14.8004 11.0653 14.8467 11.0281L14.9839 10.9091C15.0349 10.8744 15.0903 10.8467 15.1486 10.8267C15.2037 10.8002 15.2622 10.7817 15.3225 10.7717C15.4399 10.7444 15.562 10.7444 15.6794 10.7717L15.5608 10.7535ZM9.71323 10.7627L9.83185 10.7809C9.89246 10.7894 9.95122 10.808 10.0057 10.8358C10.0619 10.8541 10.1146 10.882 10.1613 10.9182C10.2161 10.9499 10.2655 10.9901 10.3077 11.0373C10.354 11.0744 10.3915 11.1213 10.4175 11.1746C10.4531 11.2234 10.4837 11.2755 10.509 11.3303L10.5639 11.5043C10.5689 11.5652 10.5689 11.6264 10.5639 11.6874C10.5639 12.1931 10.1542 12.603 9.64882 12.603C9.41383 12.5949 9.191 12.4965 9.02655 12.3283C8.93995 12.2421 8.8715 12.1393 8.82522 12.0262C8.78147 11.9155 8.75971 11.7973 8.76117 11.6782C8.75172 11.6176 8.75172 11.5558 8.76117 11.4951C8.76965 11.4345 8.78821 11.3757 8.81607 11.3211C8.83435 11.2649 8.86221 11.2122 8.89843 11.1655C8.92448 11.1122 8.96198 11.0653 9.00825 11.0281C9.04831 10.9849 9.09457 10.9479 9.14551 10.9182C9.19223 10.882 9.24486 10.8541 9.30108 10.8358C9.35557 10.808 9.41434 10.7894 9.47495 10.7809C9.59235 10.7536 9.71445 10.7536 9.83185 10.7809L9.71323 10.7627Z" fill="black"/>
</svg>
