<svg width="25" height="25" viewBox="0 0 25 25" fill="none" xmlns="http://www.w3.org/2000/svg">
<path d="M22.5317 17.1362H7.99316L8.72314 15.6494L20.8521 15.6274C21.2622 15.6274 21.6138 15.3345 21.687 14.9292L23.3667 5.52734C23.4106 5.28076 23.3447 5.02686 23.1836 4.83398C23.104 4.73906 23.0046 4.6626 22.8925 4.6099C22.7803 4.55721 22.6581 4.52954 22.5342 4.52881L7.10449 4.47754L6.97266 3.85742C6.88965 3.46191 6.5332 3.17383 6.12793 3.17383H2.35596C2.12739 3.17383 1.90818 3.26463 1.74656 3.42625C1.58494 3.58787 1.49414 3.80708 1.49414 4.03564C1.49414 4.26421 1.58494 4.48342 1.74656 4.64504C1.90818 4.80666 2.12739 4.89746 2.35596 4.89746H5.42969L6.00586 7.63672L7.42432 14.5044L5.59814 17.4854C5.50331 17.6134 5.44619 17.7653 5.43324 17.9241C5.4203 18.0829 5.45205 18.2421 5.5249 18.3838C5.67139 18.6743 5.9668 18.8574 6.29395 18.8574H7.82715C7.50029 19.2916 7.32374 19.8203 7.32422 20.3638C7.32422 21.7456 8.44727 22.8687 9.8291 22.8687C11.2109 22.8687 12.334 21.7456 12.334 20.3638C12.334 19.8193 12.1533 19.2896 11.8311 18.8574H15.7642C15.4373 19.2916 15.2608 19.8203 15.2612 20.3638C15.2612 21.7456 16.3843 22.8687 17.7661 22.8687C19.1479 22.8687 20.271 21.7456 20.271 20.3638C20.271 19.8193 20.0903 19.2896 19.7681 18.8574H22.5342C23.0078 18.8574 23.396 18.4717 23.396 17.9956C23.3946 17.7673 23.3029 17.5488 23.141 17.3878C22.9791 17.2268 22.7601 17.1364 22.5317 17.1362ZM7.46338 6.17676L21.521 6.22314L20.144 13.9331L9.10156 13.9526L7.46338 6.17676ZM9.8291 21.1353C9.4043 21.1353 9.05762 20.7886 9.05762 20.3638C9.05762 19.939 9.4043 19.5923 9.8291 19.5923C10.2539 19.5923 10.6006 19.939 10.6006 20.3638C10.6006 20.5684 10.5193 20.7646 10.3746 20.9093C10.2299 21.054 10.0337 21.1353 9.8291 21.1353ZM17.7661 21.1353C17.3413 21.1353 16.9946 20.7886 16.9946 20.3638C16.9946 19.939 17.3413 19.5923 17.7661 19.5923C18.1909 19.5923 18.5376 19.939 18.5376 20.3638C18.5376 20.5684 18.4563 20.7646 18.3116 20.9093C18.167 21.054 17.9707 21.1353 17.7661 21.1353Z" fill="black"/>
</svg>
