<svg width="25" height="25" viewBox="0 0 25 25" fill="none" xmlns="http://www.w3.org/2000/svg">
<path fill-rule="evenodd" clip-rule="evenodd" d="M23.4374 12.5C23.4374 12.2928 23.3551 12.0941 23.2086 11.9476C23.0621 11.8011 22.8634 11.7188 22.6562 11.7188H4.22962L9.14681 6.80314C9.21944 6.7305 9.27706 6.64427 9.31637 6.54936C9.35569 6.45445 9.37592 6.35274 9.37592 6.25001C9.37592 6.14729 9.35569 6.04557 9.31637 5.95066C9.27706 5.85576 9.21944 5.76952 9.14681 5.69689C9.07417 5.62425 8.98794 5.56663 8.89303 5.52732C8.79813 5.48801 8.69641 5.46777 8.59368 5.46777C8.49096 5.46777 8.38924 5.48801 8.29433 5.52732C8.19943 5.56663 8.11319 5.62425 8.04056 5.69689L1.79056 11.9469C1.7178 12.0195 1.66008 12.1057 1.62069 12.2006C1.58131 12.2955 1.56104 12.3972 1.56104 12.5C1.56104 12.6028 1.58131 12.7045 1.62069 12.7994C1.66008 12.8944 1.7178 12.9806 1.79056 13.0531L8.04056 19.3031C8.11319 19.3758 8.19943 19.4334 8.29433 19.4727C8.38924 19.512 8.49096 19.5322 8.59368 19.5322C8.69641 19.5322 8.79813 19.512 8.89303 19.4727C8.98794 19.4334 9.07417 19.3758 9.14681 19.3031C9.21944 19.2305 9.27706 19.1443 9.31637 19.0494C9.35569 18.9545 9.37592 18.8527 9.37592 18.75C9.37592 18.6473 9.35569 18.5456 9.31637 18.4507C9.27706 18.3558 9.21944 18.2695 9.14681 18.1969L4.22962 13.2813H22.6562C22.8634 13.2813 23.0621 13.199 23.2086 13.0524C23.3551 12.9059 23.4374 12.7072 23.4374 12.5Z" fill="black"/>
</svg>
